<?xml version="1.0" standalone="no"?>
<!DOCTYPE svg PUBLIC "-//W3C//DTD SVG 20010904//EN"
 "http://www.w3.org/TR/2001/REC-SVG-20010904/DTD/svg10.dtd">
<svg version="1.0" xmlns="http://www.w3.org/2000/svg"
 width="680.000000pt" height="680.000000pt" viewBox="0 0 680.000000 680.000000"
 preserveAspectRatio="xMidYMid meet">
<metadata>
Created by potrace 1.11, written by Peter Selinger 2001-2013
</metadata>
<g transform="translate(0.000000,680.000000) scale(0.100000,-0.100000)"
fill="#000000" stroke="none">
<path d="M3157 6794 c-1 -1 -92 -4 -202 -8 -110 -4 -229 -9 -265 -11 -36 -2
-105 -7 -155 -10 -49 -4 -108 -8 -130 -10 -181 -16 -207 -19 -359 -36 -54 -6
-106 -12 -115 -14 -9 -1 -45 -6 -81 -10 -36 -4 -74 -9 -84 -11 -11 -2 -42 -6
-69 -9 -104 -12 -572 -96 -727 -130 -8 -2 -79 -19 -158 -37 l-144 -33 6 -525
c3 -289 7 -550 9 -580 3 -30 7 -107 11 -170 4 -63 9 -131 11 -150 2 -19 6 -73
10 -120 3 -47 8 -92 10 -100 2 -8 6 -46 10 -83 3 -37 8 -76 10 -85 1 -9 6 -39
9 -67 4 -27 14 -93 22 -145 9 -52 17 -104 18 -115 9 -62 60 -299 90 -415 44
-174 90 -324 178 -579 38 -113 79 -235 90 -270 32 -104 146 -390 230 -581 363
-820 828 -1508 1329 -1969 131 -121 132 -122 260 -222 127 -101 174 -134 312
-223 l118 -75 92 59 c206 132 385 267 547 414 165 149 437 446 562 614 24 31
46 59 49 62 34 29 342 503 419 644 15 28 52 96 82 151 64 116 215 425 254 517
14 35 36 86 49 113 12 28 48 115 79 195 32 80 66 165 76 190 10 25 27 74 38
110 11 36 52 157 90 270 95 277 167 512 187 610 2 8 8 33 13 55 11 42 58 268
66 320 18 108 46 287 50 328 16 136 23 195 31 292 3 39 8 88 10 110 2 22 7 83
10 135 3 52 8 124 11 160 3 36 7 302 10 592 l6 527 -39 10 c-40 11 -416 96
-468 106 -155 29 -420 74 -460 79 -27 4 -75 11 -105 16 -30 5 -82 12 -115 15
-33 3 -69 8 -80 10 -11 2 -47 7 -80 10 -33 4 -73 8 -90 10 -50 6 -137 14 -200
20 -33 3 -85 7 -115 10 -262 24 -595 37 -953 39 -148 1 -269 1 -270 0z m703
-68 c237 -9 429 -22 640 -42 25 -2 74 -6 110 -9 36 -3 76 -8 90 -10 14 -2 52
-7 85 -10 33 -4 72 -8 86 -11 26 -4 52 -7 151 -19 44 -6 277 -42 313 -49 11
-2 43 -7 70 -11 28 -5 52 -9 55 -10 3 0 23 -4 45 -8 31 -6 340 -70 390 -81 6
-2 48 -11 93 -21 l84 -19 -6 -510 c-3 -281 -8 -533 -10 -561 -3 -27 -7 -93
-10 -145 -8 -138 -15 -230 -21 -270 -2 -19 -7 -64 -10 -100 -5 -59 -30 -260
-39 -320 -70 -446 -127 -667 -321 -1240 -110 -325 -136 -397 -215 -585 -373
-892 -814 -1574 -1350 -2090 -179 -173 -330 -294 -540 -434 l-151 -101 -107
71 c-298 199 -503 372 -737 620 -97 103 -226 252 -254 293 -8 12 -18 23 -21
26 -31 23 -267 363 -383 552 -206 334 -430 786 -582 1173 -25 66 -50 129 -56
140 -11 24 -163 478 -225 670 -39 122 -114 394 -128 466 -2 13 -9 44 -15 69
-5 25 -13 61 -16 80 -3 19 -14 80 -25 135 -10 55 -21 123 -25 150 -3 28 -7 64
-10 80 -13 87 -32 250 -41 350 -4 44 -8 94 -9 110 -2 17 -6 82 -10 145 -4 63
-9 144 -12 180 -2 36 -7 286 -10 556 l-5 490 103 23 c57 13 118 27 134 32 17
4 41 10 55 13 14 3 50 10 80 16 30 6 66 13 80 16 14 3 34 7 45 9 43 8 131 25
155 28 94 16 117 20 135 23 31 6 353 52 415 59 110 13 191 22 270 30 30 3 73
8 95 10 62 7 245 21 395 30 41 3 156 7 255 11 99 3 181 7 182 8 4 4 589 -2
733 -8z"/>
<path d="M2949 6586 c-2 -2 -71 -7 -154 -11 -82 -3 -172 -8 -200 -10 -27 -3
-88 -7 -135 -10 -47 -3 -96 -8 -110 -10 -14 -2 -63 -7 -110 -10 -47 -4 -92 -8
-100 -10 -8 -2 -46 -6 -85 -10 -38 -4 -79 -9 -90 -11 -10 -2 -49 -6 -85 -9
-36 -4 -72 -8 -80 -10 -8 -3 -37 -7 -65 -10 -27 -3 -57 -8 -65 -10 -8 -2 -35
-7 -60 -10 -67 -9 -100 -14 -155 -25 -27 -5 -66 -12 -85 -15 -73 -12 -281 -54
-460 -93 l-35 -8 1 -354 c1 -304 8 -579 19 -735 1 -22 6 -86 9 -142 4 -56 9
-110 10 -120 2 -10 7 -56 11 -103 4 -47 8 -87 10 -90 1 -3 6 -36 9 -75 4 -38
9 -77 11 -85 2 -8 6 -36 9 -61 22 -200 113 -602 195 -859 155 -488 308 -901
437 -1178 19 -41 34 -76 34 -78 0 -7 164 -334 207 -412 109 -202 245 -425 351
-577 52 -75 233 -316 256 -342 6 -6 27 -30 46 -54 92 -112 380 -409 456 -469
17 -14 73 -59 125 -101 52 -42 147 -113 212 -157 l117 -80 106 71 c174 117
359 272 534 447 185 185 193 194 311 340 217 267 370 493 559 825 132 233 354
706 465 990 44 114 50 131 119 340 37 110 71 209 76 220 25 56 147 459 164
545 3 14 17 76 31 138 14 63 34 164 45 226 19 111 23 132 35 231 3 28 8 61 10
75 3 14 7 52 10 85 3 33 8 71 10 85 2 14 7 66 11 115 3 50 8 97 9 105 2 8 6
76 10 150 4 74 9 162 11 195 2 33 6 245 8 472 4 379 3 413 -12 417 -107 32
-621 129 -862 161 -25 4 -56 8 -70 10 -38 6 -347 43 -410 49 -166 16 -216 20
-390 31 -63 3 -137 9 -165 12 -58 6 -1061 14 -1066 9z m301 -760 l0 -456 -37
-1 c-162 -3 -511 -17 -613 -24 -117 -8 -211 -15 -265 -20 -27 -2 -82 -7 -120
-10 -39 -3 -81 -7 -95 -9 -14 -3 -56 -7 -95 -11 -79 -7 -80 -7 -265 -31 -19
-2 -48 -6 -65 -9 -16 -2 -52 -7 -80 -11 -27 -3 -115 -17 -195 -30 -80 -14
-160 -27 -178 -30 -22 -4 -32 -1 -33 8 0 7 -2 31 -4 53 -9 99 -16 311 -20 552
-5 243 -4 262 13 267 18 6 264 53 322 62 76 12 96 15 110 19 8 2 38 6 65 10
56 7 108 14 145 21 37 6 218 28 325 39 33 3 78 8 100 11 59 6 119 12 220 19
50 4 106 9 125 10 19 2 107 6 195 10 88 4 161 8 162 9 1 1 66 3 143 5 l140 2
0 -455z m795 439 c16 -2 77 -6 135 -10 58 -3 123 -8 145 -10 22 -2 76 -6 120
-10 44 -3 91 -8 105 -10 14 -2 54 -7 90 -10 36 -3 112 -12 170 -20 58 -8 128
-17 155 -20 28 -3 61 -8 75 -10 14 -3 43 -7 65 -10 37 -6 123 -20 170 -29 11
-2 40 -7 65 -11 51 -8 74 -12 110 -20 14 -2 39 -7 55 -10 47 -8 75 -14 95 -20
18 -6 19 -19 15 -268 -5 -296 -18 -604 -27 -613 -2 -2 -85 10 -183 26 -99 17
-200 32 -225 36 -25 3 -70 9 -100 14 -30 5 -84 12 -120 16 -36 3 -72 7 -80 9
-8 2 -53 6 -100 10 -47 4 -87 8 -90 10 -3 2 -43 6 -90 10 -47 3 -101 8 -120
10 -19 2 -84 6 -145 10 -60 4 -121 8 -135 10 -32 5 -351 18 -612 24 l-38 1 0
456 0 456 232 -7 c128 -3 246 -8 263 -10z m-795 -1683 l0 -469 -162 -3 c-90
-1 -185 -3 -213 -5 -210 -10 -367 -18 -405 -20 -149 -9 -248 -16 -270 -20 -14
-2 -65 -6 -114 -10 -50 -4 -97 -8 -105 -10 -9 -1 -54 -6 -101 -10 -47 -4 -87
-8 -90 -10 -3 -2 -39 -6 -80 -10 -41 -3 -82 -8 -90 -10 -8 -3 -35 -7 -60 -10
-25 -3 -65 -8 -90 -11 -51 -7 -51 -7 -66 -5 -7 0 -23 49 -37 109 -43 176 -53
228 -92 463 -3 15 -7 47 -10 70 -3 24 -8 55 -10 69 -3 19 -13 112 -17 160 -2
20 4 29 20 28 19 0 73 7 112 16 33 7 70 13 238 36 43 6 87 12 98 14 10 2 53 7
94 11 41 4 77 9 80 10 3 2 39 6 80 10 41 3 86 8 100 10 22 3 80 9 210 20 19 1
78 6 130 10 52 4 113 9 135 10 22 2 110 7 195 10 85 4 156 8 157 9 1 0 83 2
182 4 l181 4 0 -470z m840 453 c219 -12 280 -16 320 -20 25 -3 81 -7 125 -10
44 -3 91 -8 105 -10 14 -2 57 -6 95 -10 77 -7 142 -13 195 -20 99 -12 131 -16
200 -26 303 -42 442 -67 436 -77 -2 -4 -7 -36 -11 -72 -3 -36 -8 -76 -10 -90
-2 -14 -6 -47 -9 -75 -13 -105 -48 -296 -83 -450 -39 -174 -49 -209 -61 -201
-4 2 -36 7 -72 11 -35 3 -67 8 -70 10 -3 1 -34 6 -70 9 -36 4 -75 8 -85 10
-25 4 -115 15 -180 21 -27 3 -63 7 -80 9 -16 3 -70 8 -120 11 -49 4 -101 8
-115 10 -14 2 -70 7 -125 10 -55 4 -115 8 -134 11 -19 2 -104 6 -190 10 -86 3
-187 7 -226 9 -38 2 -139 4 -222 5 l-153 2 0 470 0 471 238 -7 c130 -4 266 -9
302 -11z m-464 -1089 c14 -55 42 -100 110 -175 27 -29 54 -65 59 -80 18 -43
18 -106 1 -120 -13 -11 -19 -9 -38 15 -57 69 -87 94 -112 94 l-26 0 -1 -637
c0 -351 -2 -649 -5 -662 -7 -36 -40 -86 -77 -113 -74 -56 -149 -65 -234 -28
-93 40 -124 94 -108 195 8 57 58 117 122 146 49 22 148 28 181 10 12 -6 24
-11 29 -11 4 0 8 314 8 698 -1 383 0 702 2 707 2 6 20 10 40 10 36 -1 38 -3
49 -49z m-602 -372 c3 -9 6 -22 6 -30 0 -31 43 -102 95 -159 70 -76 87 -106
87 -161 0 -82 -21 -84 -78 -10 -41 52 -90 78 -105 55 -3 -5 -5 -199 -5 -431 1
-278 -3 -437 -10 -465 -20 -81 -118 -153 -206 -153 -118 0 -203 64 -213 159
-14 147 141 260 295 215 25 -8 46 -14 48 -14 1 0 2 227 2 505 l0 505 39 0 c26
0 41 -5 45 -16z m1193 4 c-2 -7 4 -35 14 -61 16 -45 40 -77 124 -172 31 -35
51 -85 48 -122 0 -7 -1 -22 -2 -32 -2 -39 -30 -31 -68 19 -36 48 -79 76 -105
68 -10 -4 -13 -94 -14 -444 0 -241 -4 -450 -8 -464 -21 -63 -83 -116 -163
-140 -81 -24 -218 31 -244 98 -53 136 46 271 205 278 34 2 74 -3 93 -11 l33
-14 0 505 0 504 46 0 c32 0 44 -4 41 -12z m-1774 -1009 l26 -59 -264 0 -264 0
-25 56 c-14 31 -26 58 -26 60 0 1 119 2 264 2 l264 -1 25 -58z m68 -176 c5 -5
18 -32 29 -60 l19 -50 -252 0 -252 0 -28 55 c-17 33 -25 57 -19 61 16 10 493
4 503 -6z m2295 4 c3 -3 -8 -29 -23 -58 l-28 -54 -258 -1 c-141 -1 -257 0
-257 1 0 2 10 28 21 59 20 51 24 55 58 58 56 5 482 0 487 -5z m-116 -225 c0
-1 -14 -27 -31 -57 -24 -42 -37 -55 -55 -56 -194 -6 -2427 0 -2433 7 -8 8 -61
102 -61 107 0 1 581 2 1290 2 710 0 1290 -1 1290 -3z m-135 -249 c-10 -14 -26
-41 -37 -60 l-20 -33 -1098 0 -1098 0 -20 33 c-11 19 -27 46 -37 60 l-17 27
1172 0 1172 0 -17 -27z m-133 -208 c-7 -12 -64 -98 -69 -105 -7 -8 -1877 -6
-1900 2 -13 4 -23 12 -23 18 0 6 -11 26 -25 44 -14 18 -25 37 -25 42 0 5 419
9 1024 9 682 0 1022 -3 1018 -10z"/>
<path d="M2173 6042 c-36 -4 -35 0 -35 -120 0 -28 -3 -54 -7 -56 -4 -3 -34 -7
-66 -11 -100 -11 -95 -5 -95 -104 l0 -88 58 9 c124 18 110 25 110 -51 0 -113
-8 -103 79 -97 42 3 80 11 83 16 4 6 6 44 5 85 0 41 1 75 4 76 4 0 15 2 26 4
11 2 46 5 78 6 l57 2 0 89 0 89 -82 -3 -83 -3 -1 70 c-1 39 -2 76 -3 83 -1 13
-31 13 -128 4z"/>
<path d="M4490 5968 l0 -85 -81 1 -82 1 -1 -85 0 -85 76 -5 c42 -3 80 -8 83
-12 4 -4 7 -43 6 -88 l-1 -80 27 -1 c16 0 54 -2 86 -5 65 -6 59 -16 58 103 0
61 0 61 27 58 15 -2 53 -7 85 -10 l58 -7 -3 88 c-3 98 7 88 -103 100 -33 3
-62 8 -64 10 -2 2 -3 39 -2 83 1 45 -3 82 -9 86 -5 3 -44 9 -85 12 l-75 5 0
-84z"/>
<path d="M2210 4803 c-30 -2 -59 -8 -64 -13 -5 -5 -9 -46 -9 -90 1 -68 -1 -80
-15 -81 -10 0 -26 -2 -37 -4 -11 -2 -40 -6 -65 -8 l-45 -4 -3 -90 -3 -90 53 8
c29 4 67 8 85 8 31 1 32 0 31 -41 0 -24 0 -62 1 -86 l1 -42 38 6 c20 3 54 6
74 8 20 1 40 5 44 9 4 4 8 41 8 81 1 41 4 77 7 80 5 6 77 14 132 15 l27 1 0
89 0 89 -83 -5 -82 -4 0 83 c0 94 7 88 -95 81z"/>
<path d="M4499 4802 c-1 -4 -2 -41 -3 -82 l-1 -75 -82 2 -83 1 0 -89 0 -89 28
-1 c15 -1 48 -2 73 -4 25 -1 50 -5 56 -8 5 -3 9 -38 8 -76 -1 -39 2 -76 6 -82
4 -7 24 -14 46 -16 21 -2 52 -5 69 -7 18 -2 36 -1 40 3 5 3 9 40 9 81 l0 75
39 1 c22 0 59 -3 83 -6 l44 -7 -3 91 c-2 52 -7 91 -13 92 -5 0 -42 4 -82 8
l-71 8 1 79 c1 82 -2 91 -31 95 -60 9 -132 13 -133 6z"/>
</g>
</svg>
