<?xml version="1.0" encoding="UTF-8"?>
<svg viewBox="0 0.6 137 170.3" width="411px" height="510px" version="1.1" xmlns="http://www.w3.org/2000/svg">
<style>
 .note, .bateau, .rectangle, .ecuEXT {fill: white; stroke: none;}
 .ecuINT, .croix {fill:black; stroke: none;}
</style>

<path class="ecuEXT" d="M 68.5 1.47 C 46.46 1.47 24.42 3.83 4.26 8.55 L 0.96 9.32 0.91 12.71 C 0.08 64.74 8.6 79.75 13.49 95.51 l 0.04 0.12 0.04 0.11 c 10.39 27.92 22.74 45.51 33.18 56.61 5.22 5.55 9.96 9.48 13.75 12.27 2.33 1.71 4.15 2.9 5.65 3.86 l 2.35 1.52 2.35 -1.52 c 1.5 -0.97 3.32 -2.15 5.65 -3.86 3.79 -2.79 8.53 -6.71 13.75 -12.26 10.43 -11.1 22.78 -28.69 33.18 -56.61 l 0.04 -0.11 0.04 -0.12 c 4.89 -15.75 13.41 -30.77 12.58 -82.74 l -0.05 -3.38 -3.29 -0.78 C 112.58 3.86 90.54 1.48 68.5 1.47 Z"/>
<path class="ecuINT" d="M 131.75 12.84 c 0.82 51.5 -7.31 65.02 -12.39 81.38 C 109.15 121.65 97.13 138.69 87.09 149.37 c -5.02 5.34 -9.54 9.08 -13.16 11.74 -2.23 1.64 -3.94 2.75 -5.43 3.71 -1.49 -0.96 -3.2 -2.07 -5.43 -3.71 -3.62 -2.66 -8.14 -6.4 -13.16 -11.74 C 39.87 138.69 27.85 121.65 17.64 94.22 12.56 77.86 4.43 64.34 5.25 12.78 44.82 3.51 92.18 3.51 131.75 12.84 Z"/>

<path class="bateau" d="M 30.61 105.1 C 31.07 106.12 31.53 107.1 32 108.08 H 45.16  L 43.88 105.1 H 30.61 z"/>
<path class="bateau" d="M 33.29 110.75 C 33.79 111.76 34.29 112.76 34.79 113.73 H 47.54 L 46.26 110.75 H 33.29 z"/>
<path class="bateau" d="M 36.14 116.4 C 36.69 117.42 37.24 118.41 37.8 119.38 H 99.2 C 99.75 118.41 100.3 117.42 100.86 116.4 H 36.14 z"/>
<path class="bateau" d="M 39.18 122.05 C 39.79 123.07 40.39 124.06 40.99 125.03 H 96.01 C 96.61 124.06 97.21 123.07 97.82 122.05 H 39.18 z"/>
<path class="bateau" d="M 42.7 127.7 C 43.37 128.73 44.04 129.72 44.71 130.68 H 92.29 C 92.96 129.72 93.63 128.73 94.3 127.7 H 42.7 z"/>
<path class="bateau" d="M 90.66 110.75 L 89.43 113.73 H 102.43 C 102.92 112.76 103.42 111.76 103.92 110.75 H 90.66 z"/>

<path class="note" d="M 56.98 81.04 v 25.36 c -2.83 -1.58 -6.56 -0.57 -8.19 2.15 c -0.61 1.45 -0.76 3.29 0.12 4.67 c 1.36 1.79 4.51 2.74 6.63 1.73 c 1.87 -0.81 3.39 -2.22 3.54 -4.43 v -21.58 c 1.76 -0.47 2.47 1.1 3.28 2.16 c 0.38 0.7 1.06 1.19 1.45 0.01 c 0.18 -1.96 -0.36 -3.18 -1.52 -4.22 c -1.34 -1.56 -3.06 -2.88 -3.21 -5.84 z "/>
<path class="note" d="M 86.8  80.93 v 25.36 c -2.83 -1.58 -6.56 -0.57 -8.19 2.15 c -0.61 1.45 -0.76 3.29 0.12 4.67 c 1.36 1.79 4.51 2.74 6.63 1.73 c 1.87 -0.81 3.39 -2.22 3.54 -4.43 v -21.58 c 1.76 -0.47 2.47 1.1 3.28 2.16 c 0.38 0.7 1.06 1.19 1.45 0.01 c 0.18 -1.96 -0.36 -3.18 -1.52 -4.22 c -1.34 -1.56 -3.06 -2.88 -3.21 -5.84 z "/>
<path class="note" d="M 71.89 70.89 v 35.55 c -2.83 -1.58 -6.56 -0.57 -8.19 2.15 c -0.61 1.45 -0.76 3.29 0.12 4.67 c 1.36 1.79 4.51 2.74 6.63 1.73 c 1.87 -0.81 3.39 -2.22 3.54 -4.43 v -31.77 c 1.76 -0.47 2.47 1.1 3.28 2.16 c 0.38 0.7 1.06 1.19 1.45 0.01 c 0.18 -1.96 -0.36 -3.18 -1.52 -4.22 c -1.34 -1.56 -3.06 -2.88 -3.21 -5.84 z "/>

<path class="rectangle" d="M 64.77 44.37 c -17.23 0.19 -34.39 1.68 -50.51 4.52 c  0.97 9.43  2.4  16.53  4.03 22.51 c  14.94 -2.21  30.68 -3.38  46.48 -3.53 z"/>
<path class="rectangle" d="M 64.77 13.59 c -17.79 0.23 -35.43 2.1  -51.83 5.48 c -0.02 8.55  0.24 15.78  0.67 22.14 c  16.31 -2.98  33.69 -4.57  51.16 -4.76 z"/>
<path class="rectangle" d="M 72.22 44.37 c  17.23 0.19  34.39 1.68  50.51 4.52 c -0.97 9.43 -2.4  16.53 -4.03 22.51 c -14.94 -2.21 -30.68 -3.38 -46.48 -3.53 z"/>
<path class="rectangle" d="M 72.22 13.59 c  17.79 0.23  35.43 2.1   51.83 5.48 c  0.02 8.55 -0.24 15.78 -0.67 22.14 c -16.31 -2.98 -33.69 -4.57 -51.16 -4.76 z"/>

<path class="croix" d="M  32.73 55.66 v 4.45 l  4.16 -0.51 v 4.3 l  4.16 -0.41 v -4.3 l  4.16 -0.24 v -4.45 l -4.16 0.24 v -4.3 l -4.16 0.4 v 4.3 z"/>
<path class="croix" d="M 104.27 55.66 v 4.45 l -4.16 -0.51 v 4.3 l -4.16 -0.41 v -4.3 l -4.16 -0.24 v -4.45 l  4.16 0.24 v -4.3 l  4.16 0.4 v 4.3 z"/>
<path class="croix" d="M  32.73 24.57 v 4.45 l  4.16 -0.59 v 4.3 l  4.16 -0.39 v -4.3 l  4.16 -0.24 v -4.45 l -4.16 0.24 v -4.3 l -4.16 0.4 v 4.3 z"/>
<path class="croix" d="M 104.27 24.57 v 4.45 l -4.16 -0.59 v 4.3 l -4.26 -0.39 v -4.3 l -4.16 -0.24 v -4.45 l  4.16 0.24 v -4.3 l  4.16 0.4 v 4.3 z"/>

</svg>
