<svg xmlns="http://www.w3.org/2000/svg" viewBox="0 0.6 45.3 44.5" width="136" height="133"><style>.note{fill:#fff;}</style><path class="note" d="m8.6 10.8v25.4c-2.8-1.6-6.6-0.6-8.2 2.2-0.6 1.5-0.8 3.3 0.1 4.7 1.4 1.8 4.5 2.7 6.6 1.7 1.9-0.8 3.4-2.2 3.5-4.4V18.7c1.8-0.5 2.5 1.1 3.3 2.2 0.4 0.7 1.1 1.2 1.5 0 0.2-2-0.4-3.2-1.5-4.2-1.3-1.6-3.1-2.9-3.2-5.8z"/><path class="note" d="M38.4 10.6V36c-2.8-1.6-6.6-0.6-8.2 2.2-0.6 1.5-0.8 3.3 0.1 4.7 1.4 1.8 4.5 2.7 6.6 1.7 1.9-0.8 3.4-2.2 3.5-4.4V18.5c1.8-0.5 2.5 1.1 3.3 2.2 0.4 0.7 1.1 1.2 1.5 0 0.2-2-0.4-3.2-1.5-4.2-1.3-1.6-3.1-2.9-3.2-5.8z"/><path class="note" d="m23.5 0.6v35.6c-2.8-1.6-6.6-0.6-8.2 2.2-0.6 1.5-0.8 3.3 0.1 4.7 1.4 1.8 4.5 2.7 6.6 1.7 1.9-0.8 3.4-2.2 3.5-4.4V8.5c1.8-0.5 2.5 1.1 3.3 2.2 0.4 0.7 1.1 1.2 1.5 0 0.2-2-0.4-3.2-1.5-4.2-1.3-1.6-3.1-2.9-3.2-5.8z"/></svg>
