<?xml version="1.0" encoding="UTF-8"?>
<svg version="1.1" viewBox="0 0 137 170" xmlns="http://www.w3.org/2000/svg" xmlns:cc="http://creativecommons.org/ns#" xmlns:dc="http://purl.org/dc/elements/1.1/" xmlns:rdf="http://www.w3.org/1999/02/22-rdf-syntax-ns#">
<metadata>
<rdf:RDF>
<cc:Work rdf:about="">
<dc:format>image/svg+xml</dc:format>
<dc:type rdf:resource="http://purl.org/dc/dcmitype/StillImage"/>
<dc:title/>
</cc:Work>
</rdf:RDF>
</metadata>

<style>
.note, .bateau, .croix, .outer {fill: #fac600; stroke: none;}
.rectangle {fill:#004f87; stroke:none;}
.inner {fill:#690028; stroke: none;}
</style>

<path	class="outer"	d="M	0.99	9.31	c	50.55	-13.19	80.12	-13.19	135.15	0	c	1.38	55.34	-7.61	70.3	-12.58	86.46	c	-20.82	55.86	-49.37	70.38	-55	74.32	c	-5.64	-3.94	-34.18	-18.47	-55	-74.32	c	-4.98	-16.16	-13.96	-31.12	-12.58	-86.46	z	"	stroke-width="3"	/>
<path	class="inner"	d="M	66.9	3.76	c	19.27	0	39.23	3.09	64.85	9.08	c	0.89	51.5	-7.24	65.02	-12.31	81.38	c	-10.22	27.43	-22.24	44.47	-32.28	55.15	c	-5.02	5.34	-9.55	9.08	-13.16	11.74	c	-2.23	1.64	-3.94	2.75	-5.43	3.71	c	-1.49	-0.96	-3.2	-2.07	-5.43	-3.71	c	-3.62	-2.66	-8.14	-6.4	-13.16	-11.74	c	-10.04	-10.68	-22.05	-27.72	-32.27	-55.15	c	-5.08	-16.36	-13.21	-29.88	-12.31	-81.44	c	23.45	-5.96	42.3	-9.02	61.52	-9.02	z	"	/>

<path	class="bateau"	d="M	30.96	105.07	l	1.25	2.98	l	12.95	0.04	l	-1.28	-3.02	z	"	/>
<path	class="bateau"	d="M	33.68	110.73	l	1.4	2.98	l	12.46	0.04	l	-1.28	-3.02	z	"	/>
<path	class="bateau"	d="M	36.85	116.49	l	1.4	2.72	l	60.57	0.03	l	1.4	-2.76	z	"	/>
<path	class="bateau"	d="M	39.72	121.94	l	1.7	2.98	l	53.98	0.04	l	1.59	-3.02	z	"	/>
<path	class="bateau"	d="M	43.3	127.68	l	1.81	2.98	l	46.58	0.04	l	1.92	-3.02	z	"	/>
<path	class="bateau"	d="M	103.03	110.75	l	-1.34	2.99	l	-12.26	0.04	l	1.23	-3.02	z	"	/>

<path	class="note"	d="M	56.98	81.04	v	25.36	c	-2.83	-1.58	-6.56	-0.57	-8.19	2.15	c	-0.61	1.45	-0.76	3.29	0.12	4.67	c	1.36	1.79	4.51	2.74	6.63	1.73	c	1.87	-0.81	3.39	-2.22	3.54	-4.43	v	-21.58	c	1.76	-0.47	2.47	1.1	3.28	2.16	c	0.38	0.7	1.06	1.19	1.45	0.01	c	0.18	-1.96	-0.36	-3.18	-1.52	-4.22	c	-1.34	-1.56	-3.06	-2.88	-3.21	-5.84	z	"	/>
<path	class="note"	d="M	86.8	80.93	v	25.36	c	-2.83	-1.58	-6.56	-0.57	-8.19	2.15	c	-0.61	1.45	-0.76	3.29	0.12	4.67	c	1.36	1.79	4.51	2.74	6.63	1.73	c	1.87	-0.81	3.39	-2.22	3.54	-4.43	v	-21.58	c	1.76	-0.47	2.47	1.1	3.28	2.16	c	0.38	0.7	1.06	1.19	1.45	0.01	c	0.18	-1.96	-0.36	-3.18	-1.52	-4.22	c	-1.34	-1.56	-3.06	-2.88	-3.21	-5.84	z	"	/>
<path	class="note"	d="M	72.45	70.89	v	35.55	c	-2.83	-1.58	-6.56	-0.57	-8.19	2.15	c	-0.61	1.45	-0.76	3.29	0.12	4.67	c	1.36	1.79	4.51	2.74	6.63	1.73	c	1.87	-0.81	3.39	-2.22	3.54	-4.43	v	-31.77	c	1.76	-0.47	2.47	1.1	3.28	2.16	c	0.38	0.7	1.06	1.19	1.45	0.01	c	0.18	-1.96	-0.36	-3.18	-1.52	-4.22	c	-1.34	-1.56	-3.06	-2.88	-3.21	-5.84	z	"	/>																																																																										

<path	class="rectangle"	d="M	64.78	12.77	c	-19.15	1.25	-35.98	2.22	-51.83	6.01	l	0.98	22.96	c	11.37	-2.94	34.68	-5.35	50.89	-5.27	c	-0.17	-5.8	-0.18	-15.12	-0.04	-23.71	z	"	/>
<path	class="rectangle"	d="M	72.34	12.94	c	19.15	1.25	35.98	2.22	51.83	6.01	l	-0.98	22.96	c	-11.37	-2.94	-34.68	-5.35	-50.89	-5.27	c	0.17	-5.8	0.18	-15.12	0.04	-23.71	z	"	/>
<path	class="rectangle"	d="M	72.21	44.38	c	16.84	-0.02	40	2.36	50.66	4.68	c	-1.86	10.64	-3.24	17.34	-4.7	22.34	c	-8.43	-1.32	-29.79	-3.39	-46	-3.31	c	0.17	-5.8	0.18	-15.12	0.04	-23.71	z	"	/>
<path	class="rectangle"	d="M	64.77	44.35	c	-16.84	-0.02	-40	2.36	-50.66	4.68	c	1.86	10.64	3.24	17.34	4.7	22.34	c	8.43	-1.32	29.79	-3.39	46	-3.31	c	-0.17	-5.8	-0.18	-15.12	-0.04	-23.71	z	"	/>

<path	class="croix"	d="M	32.71	24.56	l	-0.03	4.47	l	3.91	-0.4	l	0.19	4.29	l	4.26	-0.39	l	0	-4.45	l	4.15	-0.25	l	-0.04	-4.3	l	-4.11	0.22	l	-0.01	-4.27	l	-4.34	0.37	l	0.06	4.29	z	"	/>
<path	class="croix"	d="M	104.13	24.58	l	0.03	4.47	l	-3.91	-0.4	l	-0.19	4.29	l	-4.26	-0.39	l	0	-4.45	l	-4.15	-0.25	l	0.04	-4.3	l	4.11	0.22	l	0.01	-4.27	l	4.34	0.37	l	-0.06	4.29	z	"	/>
<path	class="croix"	d="M	32.6	55.59	l	0.01	4.42	l	4.07	-0.3	l	0.03	4.2	l	4.26	-0.39	l	0	-4.45	l	4.15	-0.25	l	-0.05	-4.01	l	-4.04	0.19	l	-0.12	-4.44	l	-4.28	0.28	l	0.02	4.44	z	"	/>
<path	class="croix"	d="M	104.24	55.73	l	-0.01	4.42	l	-4.07	-0.3	l	-0.03	4.2	l	-4.26	-0.39	l	0	-4.45	l	-4.15	-0.25	l	0.05	-4.01	l	4.04	0.19	l	0.12	-4.44	l	4.28	0.28	l	-0.02	4.44	z	"	/>
</svg>
