<?xml version="1.0" encoding="UTF-8"?>
<svg version="1.1" viewBox="0 0 288 354" xmlns="http://www.w3.org/2000/svg" xmlns:cc="http://creativecommons.org/ns#" xmlns:dc="http://purl.org/dc/elements/1.1/" xmlns:rdf="http://www.w3.org/1999/02/22-rdf-syntax-ns#">
<metadata>
<rdf:RDF>
<cc:Work rdf:about="">
<dc:format>image/svg+xml</dc:format>
<dc:type rdf:resource="http://purl.org/dc/dcmitype/StillImage" />
<dc:title/>
</cc:Work>
</rdf:RDF>
</metadata>

<style>
.note, .bateau, .rectangle {fill: white; stroke: none;}
.outer {fill:white; stroke:black;}
.inner, .croix {fill:black; stroke: none;}
</style>

<path class="outer" d="M 8.97 25.62 c 101.09 -26.38 160.24 -26.38 270.3 0 c 2.76 110.68 -15.21 140.59 -25.15 172.91 c -41.64 111.71 -98.73 140.76 -110 148.64 c -11.28 -7.88 -68.36 -36.93 -110 -148.64 c -9.95 -32.32 -27.91 -62.23 -25.15 -172.91 z " stroke-width="3" />
<path class="inner" d="M 140.8 14.529 c 38.548 0 78.46 6.1759 129.69 18.168 c 1.7881 103 -14.481 130.04 -24.625 162.75 c -20.447 54.854 -44.473 88.946 -64.551 110.3 c -10.039 10.676 -19.094 18.164 -26.324 23.479 c -4.4618 3.2795 -7.8814 5.5035 -10.865 7.418 c -2.9846 -1.9143 -6.4064 -4.138 -10.869 -7.418 c -7.2302 -5.314 -16.284 -12.803 -26.322 -23.479 c -20.076 -21.351 -44.1 -55.443 -64.547 -110.3 c -10.157 -32.727 -26.428 -59.768 -24.623 -162.88 c 46.9 -11.91 84.591 -18.045 123.04 -18.045 z " />

<path class="bateau" d="M 68.92 217.14 l 2.4911 5.9635 l 25.892 0.0755 l -2.5666 -6.039 z " />
<path class="bateau" d="M 74.354 228.46 l 2.793 5.9635 l 24.911 0.0755 l -2.5666 -6.039 z " />
<path class="bateau" d="M 80.697 239.97 l 2.7983 5.4491 l 121.14 0.069 l 2.799 -5.5181 z " />
<path class="bateau" d="M 86.432 250.88 l 3.3969 5.9635 l 107.95 0.0755 l 3.1705 -6.039 z " />
<path class="bateau" d="M 93.603 262.36 l 3.6234 5.9635 l 93.151 0.0755 l 3.8498 -6.039 z " />
<path class="bateau" d="M 213.05 228.5 l -2.6892 5.9743 l -24.511 0.0756 l 2.4596 -6.0499 z " />

<path class="note" d="M 120.95 169.07 v 50.714 c -5.6591 -3.1511 -13.115 -1.1402 -16.38 4.3 c -1.2107 2.897 -1.5158 6.5788 0.23197 9.3317 c 2.7211 3.578 9.0124 5.4845 13.267 3.4519 c 3.7486 -1.6111 6.7816 -4.4317 7.075 -8.8613 v -43.157 c 3.5176 -0.94405 4.9481 2.2047 6.5531 4.3115 c 0.75714 1.4002 2.1132 2.3841 2.8934 0.0261 c 0.35689 -3.9146 -0.7142 -6.3596 -3.036 -8.4388 c -2.6745 -3.1152 -6.1128 -5.7569 -6.4104 -11.678 z " />
<path class="note" d="M 180.59 168.86 v 50.714 c -5.6591 -3.1511 -13.115 -1.1402 -16.38 4.3 c -1.2107 2.897 -1.5158 6.5788 0.23197 9.3317 c 2.7211 3.578 9.0124 5.4845 13.267 3.4519 c 3.7486 -1.6111 6.7816 -4.4317 7.075 -8.8613 v -43.157 c 3.5176 -0.94405 4.9481 2.2047 6.5531 4.3115 c 0.75714 1.4002 2.1132 2.3841 2.8934 0.0261 c 0.35689 -3.9146 -0.7142 -6.3596 -3.036 -8.4388 c -2.6745 -3.1152 -6.1128 -5.7569 -6.4104 -11.678 z " />
<path class="note" d="M 151.9 148.78 v 71.095 c -5.6591 -3.1511 -13.115 -1.1402 -16.38 4.3 c -1.2107 2.897 -1.5158 6.5788 0.23197 9.3317 c 2.7211 3.578 9.0124 5.4845 13.267 3.4519 c 3.7486 -1.6111 6.7816 -4.4317 7.075 -8.8613 v -63.538 c 3.5176 -0.94405 4.9481 2.2047 6.5531 4.3115 c 0.75714 1.4002 2.1132 2.3841 2.8934 0.0261 c 0.35689 -3.9146 -0.7142 -6.3596 -3.036 -8.4388 c -2.6745 -3.1152 -6.1128 -5.7569 -6.4104 -11.678 z " />

<path class="rectangle" d="M 136.56 32.548 c -38.3 2.4999 -71.963 4.4475 -103.66 12.018 l 1.9651 45.926 c 22.74 -5.8859 69.352 -10.7 101.78 -10.533 c -0.34168 -11.609 -0.36541 -30.241 -0.08568 -47.41 z " />
<path class="rectangle" d="M 151.68 32.871 c 38.3 2.4999 71.963 4.4475 103.66 12.018 l -1.9651 45.926 c -22.74 -5.8859 -69.352 -10.7 -101.78 -10.533 c 0.34168 -11.609 0.36541 -30.241 0.0857 -47.41 z " />
<path class="rectangle" d="M 151.42 95.757 c 33.683 -0.03911 79.999 4.7234 101.32 9.3501 c -3.7247 21.279 -6.482 34.686 -9.4017 44.683 c -16.855 -2.6355 -59.574 -6.7892 -91.999 -6.6228 c 0.34168 -11.609 0.36541 -30.241 0.0857 -47.41 z " />
<path class="rectangle" d="M 136.53 95.701 c -33.683 -0.03911 -79.999 4.7234 -101.32 9.3501 c 3.7247 21.279 6.482 34.686 9.4017 44.683 c 16.855 -2.6355 59.574 -6.7892 91.999 -6.6228 c -0.34168 -11.609 -0.36541 -30.241 -0.0857 -47.41 z " />

<path class="croix" d="M 72.428 56.117 l -0.05908 8.9464 l 7.8257 -0.79376 l 0.37641 8.5868 l 8.5251 -0.77109 l 0.0051 -8.895 l 8.2965 -0.50031 l -0.0722 -8.6074 l -8.2211 0.44131 l -0.01084 -8.5342 l -8.6824 0.7333 l 0.12256 8.5719 z " />
<path class="croix" d="M 215.25 56.163 l 0.0591 8.9464 l -7.8257 -0.79376 l -0.37641 8.5868 l -8.5251 -0.77109 l -0.005 -8.895 l -8.2965 -0.50031 l 0.0722 -8.6074 l 8.2211 0.44131 l 0.0108 -8.5342 l 8.6824 0.7333 l -0.12257 8.5719 z " />
<path class="croix" d="M 72.194 118.17 l 0.0114 8.849 l 8.1403 -0.59831 l 0.06182 8.3913 l 8.5251 -0.7711 l 0.0051 -8.895 l 8.2965 -0.50032 l -0.09167 -8.0251 l -8.0837 0.37997 l -0.2487 -8.8856 l -8.5624 0.56374 l 0.04141 8.8858 z " />
<path class="croix" d="M 215.47 118.46 l -0.0114 8.849 l -8.1403 -0.59831 l -0.0618 8.3913 l -8.5251 -0.7711 l -0.005 -8.895 l -8.2965 -0.50032 l 0.0917 -8.0251 l 8.0838 0.37997 l 0.2487 -8.8856 l 8.5624 0.56374 l -0.0414 8.8858 z " />
</svg>
