<?xml version="1.0" encoding="UTF-8" standalone="no"?>
<svg
   xmlns:dc="http://purl.org/dc/elements/1.1/"
   xmlns:cc="http://creativecommons.org/ns#"
   xmlns:rdf="http://www.w3.org/1999/02/22-rdf-syntax-ns#"
   xmlns:svg="http://www.w3.org/2000/svg"
   xmlns="http://www.w3.org/2000/svg"
   xmlns:xlink="http://www.w3.org/1999/xlink"
   xmlns:sodipodi="http://sodipodi.sourceforge.net/DTD/sodipodi-0.dtd"
   xmlns:inkscape="http://www.inkscape.org/namespaces/inkscape"
   version="1.1"
   id="svg869"
   width="288"
   height="354"
   viewBox="0 0 288 354"
   sodipodi:docname="logo nb.jpg.svg"
   inkscape:version="1.0 (6e3e5246a0, 2020-05-07)">
  <metadata
     id="metadata875">
    <rdf:RDF>
      <cc:Work
         rdf:about="">
        <dc:format>image/svg+xml</dc:format>
        <dc:type
           rdf:resource="http://purl.org/dc/dcmitype/StillImage" />
        <dc:title />
      </cc:Work>
    </rdf:RDF>
  </metadata>
  <defs
     id="defs873" />
  <sodipodi:namedview
     pagecolor="#ffffff"
     bordercolor="#666666"
     borderopacity="1"
     objecttolerance="10"
     gridtolerance="10"
     guidetolerance="10"
     inkscape:pageopacity="0"
     inkscape:pageshadow="2"
     inkscape:window-width="1920"
     inkscape:window-height="1016"
     id="namedview871"
     showgrid="false"
     inkscape:zoom="1.6514684"
     inkscape:cx="117.25074"
     inkscape:cy="138.66778"
     inkscape:window-x="0"
     inkscape:window-y="27"
     inkscape:window-maximized="1"
     inkscape:current-layer="svg869"
     inkscape:document-rotation="0" />

  <path
     inkscape:connector-curvature="0"
     class="note"
     d="m 120.9504,169.06668 v 50.71377 c -5.65912,-3.15111 -13.11526,-1.14015 -16.37977,4.3 -1.21069,2.89697 -1.51575,6.57882 0.23197,9.33173 2.72113,3.57805 9.01242,5.48453 13.26731,3.45189 3.74858,-1.61108 6.7816,-4.43167 7.075,-8.86132 v -43.15693 c 3.51757,-0.94405 4.94812,2.20472 6.55307,4.31147 0.75714,1.40025 2.1132,2.38409 2.89335,0.0261 0.35689,-3.9146 -0.7142,-6.35956 -3.03601,-8.43881 -2.67453,-3.11517 -6.11277,-5.75686 -6.41041,-11.6779 z"
     id="path931"
     sodipodi:nodetypes="cccccccccccc"
     style="fill:none;fill-opacity:1;stroke:#ffff00;stroke-width:0.37451822;stroke-miterlimit:4;stroke-dasharray:none;stroke-opacity:1" />
  <path
     style="fill:none;stroke:#fffe00;stroke-width:0.37795275;stroke-linecap:butt;stroke-linejoin:miter;stroke-miterlimit:4;stroke-dasharray:none;stroke-opacity:1"
     d="m 68.919882,217.14157 2.491079,5.96349 25.892135,0.0755 -2.566567,-6.03898 z"
     id="path1520"
     inkscape:connector-curvature="0"
     sodipodi:nodetypes="ccccc" />
  <path
     style="fill:none;stroke:#fffe00;stroke-width:0.37795275;stroke-linecap:butt;stroke-linejoin:miter;stroke-miterlimit:4;stroke-dasharray:none;stroke-opacity:1"
     d="m 74.353833,228.46424 2.793029,5.96349 24.910798,0.0755 -2.566561,-6.03898 z"
     id="path1520-7"
     inkscape:connector-curvature="0"
     sodipodi:nodetypes="ccccc" />
  <path
     style="fill:none;stroke:#fffe00;stroke-width:0.37795275;stroke-linecap:butt;stroke-linejoin:miter;stroke-miterlimit:4;stroke-dasharray:none;stroke-opacity:1"
     d="m 80.696739,239.97232 2.798338,5.44913 121.139093,0.069 2.79903,-5.51811 z"
     id="path1520-5"
     inkscape:connector-curvature="0"
     sodipodi:nodetypes="ccccc" />
  <path
     style="fill:none;stroke:#fffe00;stroke-width:0.37795275;stroke-linecap:butt;stroke-linejoin:miter;stroke-miterlimit:4;stroke-dasharray:none;stroke-opacity:1"
     d="m 86.431793,250.88396 3.396927,5.96349 107.9468,0.0755 3.17047,-6.03898 z"
     id="path1520-3"
     inkscape:connector-curvature="0"
     sodipodi:nodetypes="ccccc" />
  <path
     style="fill:none;stroke:#fffe00;stroke-width:0.37795275;stroke-linecap:butt;stroke-linejoin:miter;stroke-miterlimit:4;stroke-dasharray:none;stroke-opacity:1"
     d="m 93.603088,262.35802 3.623388,5.96349 93.151294,0.0755 3.84985,-6.03898 z"
     id="path1520-56"
     inkscape:connector-curvature="0"
     sodipodi:nodetypes="ccccc" />
  <path
     style="fill:none;stroke:#fffe00;stroke-width:0.37039369;stroke-linecap:butt;stroke-linejoin:miter;stroke-miterlimit:4;stroke-dasharray:none;stroke-opacity:1"
     d="m 213.04719,228.49651 -2.68925,5.97429 -24.51149,0.0756 2.45963,-6.04991 z"
     id="path1520-2"
     inkscape:connector-curvature="0"
     sodipodi:nodetypes="ccccc" />
  <path
     inkscape:connector-curvature="0"
     class="note"
     d="m 180.5879,168.86202 v 50.71377 c -5.65912,-3.15111 -13.11526,-1.14015 -16.37977,4.3 -1.21069,2.89697 -1.51575,6.57882 0.23197,9.33173 2.72113,3.57805 9.01242,5.48453 13.26731,3.45189 3.74858,-1.61108 6.7816,-4.43167 7.075,-8.86132 v -43.15693 c 3.51757,-0.94405 4.94812,2.20472 6.55307,4.31147 0.75714,1.40025 2.1132,2.38409 2.89335,0.0261 0.35689,-3.9146 -0.7142,-6.35956 -3.03601,-8.43881 -2.67453,-3.11517 -6.11277,-5.75686 -6.41041,-11.6779 z"
     id="path931-9"
     sodipodi:nodetypes="cccccccccccc"
     style="fill:none;fill-opacity:1;stroke:#ffff00;stroke-width:0.37451822;stroke-miterlimit:4;stroke-dasharray:none;stroke-opacity:1" />
  <path
     inkscape:connector-curvature="0"
     class="note"
     d="m 151.90273,148.7824 0,71.09533 c -5.65912,-3.15111 -13.11526,-1.14015 -16.37977,4.3 -1.21069,2.89697 -1.51575,6.57882 0.23197,9.33173 2.72113,3.57805 9.01242,5.48453 13.26731,3.45189 3.74858,-1.61108 6.7816,-4.43167 7.075,-8.86132 l 0,-63.53849 c 3.51757,-0.94405 4.94812,2.20472 6.55307,4.31147 0.75714,1.40025 2.1132,2.38409 2.89335,0.0261 0.35689,-3.9146 -0.7142,-6.35956 -3.03601,-8.43881 -2.67453,-3.11517 -6.11277,-5.75686 -6.41041,-11.6779 z"
     id="path931-1"
     sodipodi:nodetypes="cccccccccccc"
     style="fill:none;fill-opacity:1;stroke:#ffff00;stroke-width:0.37451822;stroke-miterlimit:4;stroke-dasharray:none;stroke-opacity:1" />
  <path
     style="display:inline;fill:none;stroke:#ff0000;stroke-width:0.75590551;stroke-linecap:butt;stroke-linejoin:miter;stroke-opacity:1;stroke-miterlimit:4;stroke-dasharray:none"
     d="M 8.97,25.62 C 110.06,-0.76 169.21,-0.76 279.27,25.62 C 282.03,136.3 264.06,166.21 254.12,198.53 C 212.48,310.24 155.39,339.29 144.12,347.17 C 132.84,339.29 75.76,310.24 34.12,198.53 C 24.17,166.21 6.21,136.3 8.97,25.62  Z"
     id="path831"
     inkscape:connector-curvature="0"
     sodipodi:nodetypes="cccccc"
     inkscape:label="#path831" />
  <path
     style="color:#000000;font-style:normal;font-variant:normal;font-weight:normal;font-stretch:normal;font-size:medium;line-height:normal;font-family:sans-serif;font-variant-ligatures:normal;font-variant-position:normal;font-variant-caps:normal;font-variant-numeric:normal;font-variant-alternates:normal;font-feature-settings:normal;text-indent:0;text-align:start;text-decoration:none;text-decoration-line:none;text-decoration-style:solid;text-decoration-color:#000000;letter-spacing:normal;word-spacing:normal;text-transform:none;writing-mode:lr-tb;direction:ltr;text-orientation:mixed;dominant-baseline:auto;baseline-shift:baseline;text-anchor:start;white-space:normal;shape-padding:0;clip-rule:nonzero;display:inline;overflow:visible;visibility:visible;opacity:1;isolation:auto;mix-blend-mode:normal;color-interpolation:sRGB;color-interpolation-filters:linearRGB;solid-color:#000000;solid-opacity:1;vector-effect:none;fill:none;fill-opacity:1;fill-rule:nonzero;stroke:#ff0000;stroke-width:0.755906;stroke-linecap:butt;stroke-linejoin:miter;stroke-miterlimit:4;stroke-dasharray:none;stroke-dashoffset:0;stroke-opacity:1;color-rendering:auto;image-rendering:auto;shape-rendering:auto;text-rendering:auto;enable-background:accumulate"
     d="m 140.79884,14.529297 c 38.54824,0 78.45964,6.175931 129.68555,18.167969 1.78807,102.995844 -14.4814,130.039184 -24.625,162.753904 -20.44681,54.85382 -44.47341,88.94581 -64.55079,110.29688 -10.03868,10.67553 -19.09422,18.16437 -26.32421,23.47851 -4.46177,3.27946 -7.88142,5.50348 -10.86524,7.41797 -2.98455,-1.91431 -6.40638,-4.13798 -10.86914,-7.41797 -7.23019,-5.31396 -16.28424,-12.80304 -26.32227,-23.47851 C 86.851678,284.39711 62.827748,250.30521 42.380859,195.45117 32.224125,162.72406 15.953061,135.68307 17.757812,32.574219 64.657515,20.663998 102.34922,14.529297 140.79883,14.529297 Z"
     id="path831-6"
     sodipodi:nodetypes="sccsscssccss" />
  <path
     sodipodi:nodetypes="ccccc"
     id="path906-5-3"
     d="M 136.55901,32.548456 C 98.25854,35.048354 64.595784,36.99595 32.90236,44.566405 l 1.965129,45.925957 C 57.607293,84.606418 104.21901,79.792404 136.64469,79.95889 136.30301,68.349637 136.27928,49.718024 136.55901,32.548456 Z"
     style="color:#000000;font-style:normal;font-variant:normal;font-weight:normal;font-stretch:normal;font-size:medium;line-height:normal;font-family:sans-serif;font-variant-ligatures:normal;font-variant-position:normal;font-variant-caps:normal;font-variant-numeric:normal;font-variant-alternates:normal;font-feature-settings:normal;text-indent:0;text-align:start;text-decoration:none;text-decoration-line:none;text-decoration-style:solid;text-decoration-color:#000000;letter-spacing:normal;word-spacing:normal;text-transform:none;writing-mode:lr-tb;direction:ltr;text-orientation:mixed;dominant-baseline:auto;baseline-shift:baseline;text-anchor:start;white-space:normal;shape-padding:0;clip-rule:nonzero;display:inline;overflow:visible;visibility:visible;opacity:1;isolation:auto;mix-blend-mode:normal;color-interpolation:sRGB;color-interpolation-filters:linearRGB;solid-color:#000000;solid-opacity:1;vector-effect:none;fill:none;fill-opacity:1;fill-rule:nonzero;stroke:#ff0000;stroke-width:0.755906;stroke-linecap:butt;stroke-linejoin:miter;stroke-miterlimit:4;stroke-dasharray:none;stroke-dashoffset:0;stroke-opacity:1;color-rendering:auto;image-rendering:auto;shape-rendering:auto;text-rendering:auto;enable-background:accumulate"
     inkscape:connector-curvature="0" />
  <path
     inkscape:connector-curvature="0"
     style="color:#000000;font-style:normal;font-variant:normal;font-weight:normal;font-stretch:normal;font-size:medium;line-height:normal;font-family:sans-serif;font-variant-ligatures:normal;font-variant-position:normal;font-variant-caps:normal;font-variant-numeric:normal;font-variant-alternates:normal;font-feature-settings:normal;text-indent:0;text-align:start;text-decoration:none;text-decoration-line:none;text-decoration-style:solid;text-decoration-color:#000000;letter-spacing:normal;word-spacing:normal;text-transform:none;writing-mode:lr-tb;direction:ltr;text-orientation:mixed;dominant-baseline:auto;baseline-shift:baseline;text-anchor:start;white-space:normal;shape-padding:0;clip-rule:nonzero;display:inline;overflow:visible;visibility:visible;opacity:1;isolation:auto;mix-blend-mode:normal;color-interpolation:sRGB;color-interpolation-filters:linearRGB;solid-color:#000000;solid-opacity:1;vector-effect:none;fill:none;fill-opacity:1;fill-rule:nonzero;stroke:#ff0000;stroke-width:0.755906;stroke-linecap:butt;stroke-linejoin:miter;stroke-miterlimit:4;stroke-dasharray:none;stroke-dashoffset:0;stroke-opacity:1;color-rendering:auto;image-rendering:auto;shape-rendering:auto;text-rendering:auto;enable-background:accumulate"
     d="m 151.67914,32.871011 c 38.30047,2.499898 71.96322,4.447494 103.65665,12.017949 l -1.96513,45.925956 c -22.73981,-5.88594 -69.35152,-10.69996 -101.7772,-10.53347 0.34168,-11.609254 0.36541,-30.240867 0.0857,-47.410435 z"
     id="path906-5-3-6"
     sodipodi:nodetypes="ccccc" />
  <path
     sodipodi:nodetypes="cccccc"
     id="path906-5-3-6-7"
     d="m 151.41606,95.756703 c 33.68266,-0.03911 79.99899,4.723397 101.31552,9.350147 -3.7247,21.27911 -6.48202,34.68587 -9.40173,44.68304 -16.85461,-2.63554 -59.57379,-6.78924 -91.99947,-6.62275 0.34168,-11.60926 0.36541,-30.24087 0.0857,-47.410437 z"
     style="color:#000000;font-style:normal;font-variant:normal;font-weight:normal;font-stretch:normal;font-size:medium;line-height:normal;font-family:sans-serif;font-variant-ligatures:normal;font-variant-position:normal;font-variant-caps:normal;font-variant-numeric:normal;font-variant-alternates:normal;font-feature-settings:normal;text-indent:0;text-align:start;text-decoration:none;text-decoration-line:none;text-decoration-style:solid;text-decoration-color:#000000;letter-spacing:normal;word-spacing:normal;text-transform:none;writing-mode:lr-tb;direction:ltr;text-orientation:mixed;dominant-baseline:auto;baseline-shift:baseline;text-anchor:start;white-space:normal;shape-padding:0;clip-rule:nonzero;display:inline;overflow:visible;visibility:visible;opacity:1;isolation:auto;mix-blend-mode:normal;color-interpolation:sRGB;color-interpolation-filters:linearRGB;solid-color:#000000;solid-opacity:1;vector-effect:none;fill:none;fill-opacity:1;fill-rule:nonzero;stroke:#ff0000;stroke-width:0.755906;stroke-linecap:butt;stroke-linejoin:miter;stroke-miterlimit:4;stroke-dasharray:none;stroke-dashoffset:0;stroke-opacity:1;color-rendering:auto;image-rendering:auto;shape-rendering:auto;text-rendering:auto;enable-background:accumulate"
     inkscape:connector-curvature="0" />
  <path
     inkscape:connector-curvature="0"
     style="color:#000000;font-style:normal;font-variant:normal;font-weight:normal;font-stretch:normal;font-size:medium;line-height:normal;font-family:sans-serif;font-variant-ligatures:normal;font-variant-position:normal;font-variant-caps:normal;font-variant-numeric:normal;font-variant-alternates:normal;font-feature-settings:normal;text-indent:0;text-align:start;text-decoration:none;text-decoration-line:none;text-decoration-style:solid;text-decoration-color:#000000;letter-spacing:normal;word-spacing:normal;text-transform:none;writing-mode:lr-tb;direction:ltr;text-orientation:mixed;dominant-baseline:auto;baseline-shift:baseline;text-anchor:start;white-space:normal;shape-padding:0;clip-rule:nonzero;display:inline;overflow:visible;visibility:visible;opacity:1;isolation:auto;mix-blend-mode:normal;color-interpolation:sRGB;color-interpolation-filters:linearRGB;solid-color:#000000;solid-opacity:1;vector-effect:none;fill:none;fill-opacity:1;fill-rule:nonzero;stroke:#ff0000;stroke-width:0.755906;stroke-linecap:butt;stroke-linejoin:miter;stroke-miterlimit:4;stroke-dasharray:none;stroke-dashoffset:0;stroke-opacity:1;color-rendering:auto;image-rendering:auto;shape-rendering:auto;text-rendering:auto;enable-background:accumulate"
     d="m 136.52916,95.700704 c -33.68266,-0.03911 -79.99899,4.723396 -101.31552,9.350146 3.7247,21.27911 6.48202,34.68587 9.40173,44.68304 16.85461,-2.63554 59.57379,-6.78924 91.99947,-6.62275 -0.34168,-11.60926 -0.36541,-30.24087 -0.0857,-47.410436 z"
     id="path906-5-3-6-7-3"
     sodipodi:nodetypes="cccccc" />
  <path
     sodipodi:nodetypes="ccccccccccccc"
     inkscape:connector-curvature="0"
     id="path1520-562"
     d="m 72.428352,56.117078 -0.05908,8.946355 7.825736,-0.793755 0.376409,8.58675 8.525097,-0.771094 0.0051,-8.894971 8.296506,-0.500313 -0.0722,-8.607406 -8.221103,0.44131 -0.01084,-8.534157 -8.682353,0.733301 0.122563,8.571931 z"
     style="fill:none;stroke:#fffe00;stroke-width:0.377953;stroke-linecap:butt;stroke-linejoin:miter;stroke-miterlimit:4;stroke-dasharray:none;stroke-opacity:1" />
  <path
     style="fill:none;stroke:#fffe00;stroke-width:0.377953;stroke-linecap:butt;stroke-linejoin:miter;stroke-miterlimit:4;stroke-dasharray:none;stroke-opacity:1"
     d="m 215.24602,56.163358 0.0591,8.946355 -7.82574,-0.793755 -0.37641,8.58675 -8.52509,-0.771094 -0.005,-8.894971 -8.29651,-0.500313 0.0722,-8.607406 8.2211,0.44131 0.0108,-8.534157 8.68236,0.733301 -0.12257,8.571931 z"
     id="path1520-562-9"
     inkscape:connector-curvature="0"
     sodipodi:nodetypes="ccccccccccccc" />
  <path
     style="fill:none;stroke:#fffe00;stroke-width:0.377953;stroke-linecap:butt;stroke-linejoin:miter;stroke-miterlimit:4;stroke-dasharray:none;stroke-opacity:1"
     d="m 72.193831,118.16676 0.0114,8.84897 8.140329,-0.59831 0.06182,8.3913 8.525096,-0.7711 0.0051,-8.89496 8.296506,-0.50032 -0.09167,-8.02506 -8.083748,0.37997 -0.248701,-8.8856 -8.562378,0.56374 0.04141,8.88585 z"
     id="path1520-562-3"
     inkscape:connector-curvature="0"
     sodipodi:nodetypes="ccccccccccccc" />
  <path
     sodipodi:nodetypes="ccccccccccccc"
     inkscape:connector-curvature="0"
     id="path1520-562-3-6"
     d="m 215.46648,118.45963 -0.0114,8.84897 -8.14033,-0.59831 -0.0618,8.3913 -8.52509,-0.7711 -0.005,-8.89496 -8.29651,-0.50032 0.0917,-8.02506 8.08375,0.37997 0.2487,-8.8856 8.56238,0.56374 -0.0414,8.88585 z"
     style="fill:none;stroke:#fffe00;stroke-width:0.377953;stroke-linecap:butt;stroke-linejoin:miter;stroke-miterlimit:4;stroke-dasharray:none;stroke-opacity:1" />
</svg>
